<svg width="30" height="30" viewBox="0 0 30 30" fill="none" xmlns="http://www.w3.org/2000/svg">
<path d="M21.909 20.2804H11.4557L11.2344 19.3777H23.0813L25 11.0435L9.34831 9.17288L8.63126 5H5V6.57643H7.29796L7.71036 8.97708L7.67711 8.97315L9.56651 19.3779H9.60631L9.83635 20.3153C8.71688 20.5016 7.85998 21.4719 7.85998 22.6401C7.85998 23.9414 8.92168 25 10.2266 25C11.5316 25 12.5936 23.9414 12.5936 22.6401C12.5936 22.3655 12.5438 22.1022 12.4565 21.8571H19.6791C19.5922 22.1025 19.5421 22.3657 19.5421 22.6401C19.5421 23.9414 20.6038 25 21.9085 25C23.2138 25 24.2755 23.9414 24.2755 22.6401C24.2763 21.3391 23.2143 20.2804 21.909 20.2804ZM9.62709 10.7937L23.0652 12.4001L21.8217 17.8013H10.8872L9.84238 12.0465L9.62709 10.7937ZM10.2272 23.4234C9.79406 23.4234 9.44172 23.0719 9.44172 22.6399C9.44172 22.2082 9.79406 21.8569 10.2272 21.8569C10.6604 21.8569 11.0128 22.2085 11.0128 22.6399C11.0128 23.0721 10.6604 23.4234 10.2272 23.4234ZM21.909 23.4237C21.4761 23.4237 21.1237 23.0722 21.1237 22.6402C21.1237 22.2085 21.4763 21.8572 21.909 21.8572C22.3425 21.8572 22.6949 22.2087 22.6949 22.6402C22.6952 23.0721 22.3425 23.4237 21.909 23.4237Z" fill="white"/>
</svg>
