<svg width="30" height="30" viewBox="0 0 30 30" fill="none" xmlns="http://www.w3.org/2000/svg">
<path d="M12.7675 8.4002L12.7673 8.40001C11.9988 7.63171 10.9566 7.2001 9.86986 7.2001C8.78326 7.2001 7.74113 7.63163 6.97262 8.39979C6.97258 8.39983 6.97254 8.39987 6.97251 8.3999C6.97247 8.39994 6.97244 8.39997 6.9724 8.40001C6.20423 9.16852 5.77271 10.2106 5.77271 11.2973C5.77271 12.3839 6.20429 13.4261 6.97256 14.1947M12.7675 8.4002L6.97256 14.1947M12.7675 8.4002L14.2613 9.89271L14.9681 10.5989L15.6749 9.89271L17.1687 8.4002L17.175 8.39391L17.1812 8.38751C17.5592 7.99608 18.0115 7.68387 18.5115 7.46908C19.0115 7.2543 19.5492 7.14124 20.0934 7.13651C20.6376 7.13179 21.1772 7.23548 21.6809 7.44154C22.1845 7.64761 22.6421 7.95191 23.0269 8.33671L23.734 7.6296L12.7675 8.4002ZM6.97256 14.1947L6.2654 14.9017L6.97262 14.1947C6.9726 14.1947 6.97258 14.1947 6.97256 14.1947ZM14.9681 22.1914L14.2611 22.8985L14.9681 23.6057L15.6752 22.8985L14.9681 22.1914Z" stroke="white" stroke-width="2"/>
</svg>
