<svg width="18" height="18" viewBox="0 0 18 18" fill="none" xmlns="http://www.w3.org/2000/svg">
<path fill-rule="evenodd" clip-rule="evenodd" d="M10.17 0.9414C10.3527 0.998858 10.5123 1.1131 10.6256 1.26752C10.7389 1.42194 10.8 1.60847 10.8 1.8V6.3H14.4C14.5646 6.29993 14.7261 6.34501 14.8669 6.43034C15.0077 6.51567 15.1224 6.63799 15.1985 6.78397C15.2746 6.92995 15.3092 7.09401 15.2985 7.25829C15.2879 7.42257 15.2323 7.58078 15.138 7.7157L8.838 16.7157C8.72836 16.8728 8.57145 16.9908 8.39011 17.0525C8.20877 17.1143 8.01246 17.1166 7.82973 17.059C7.64701 17.0015 7.48741 16.8872 7.37415 16.7327C7.26089 16.5782 7.19988 16.3916 7.2 16.2V11.7H3.6C3.43538 11.7001 3.27389 11.655 3.1331 11.5697C2.99232 11.4843 2.87763 11.362 2.80153 11.216C2.72543 11.07 2.69083 10.906 2.70149 10.7417C2.71216 10.5774 2.76767 10.4192 2.862 10.2843L9.162 1.2843C9.27181 1.12751 9.42875 1.00981 9.61003 0.948308C9.7913 0.886805 9.98746 0.884701 10.17 0.9423V0.9414Z" fill="white"/>
</svg>
