<svg width="25" height="25" viewBox="0 0 25 25" fill="none" xmlns="http://www.w3.org/2000/svg">
<g clip-path="url(#clip0_4401_28131)">
<path d="M22.7485 5.06048L13.2697 0.185891C12.7877 -0.0619294 12.2123 -0.0619294 11.7304 0.185891L2.25159 5.06048C1.68829 5.35018 1.33838 5.92358 1.33838 6.55704V18.443C1.33838 19.0765 1.68829 19.6499 2.25159 19.9396L11.7304 24.8142C12.2123 25.062 12.7877 25.062 13.2697 24.8142L22.7486 19.9396C23.3119 19.6499 23.6618 19.0765 23.6618 18.443V6.55704C23.6617 5.92358 23.3118 5.35013 22.7485 5.06048ZM22.8284 18.443C22.8284 18.7628 22.6517 19.0523 22.3674 19.1985L12.8885 24.073C12.6452 24.1981 12.3548 24.1981 12.1115 24.073L2.63269 19.1985C2.34836 19.0522 2.17169 18.7628 2.17169 18.443V6.55704C2.17169 6.23729 2.34831 5.9478 2.63269 5.8016C12.8591 0.54257 12.2056 0.833205 12.5001 0.833205C12.7958 0.833205 12.1456 0.544966 22.3537 5.79452L12.5007 10.8416L4.45973 6.69491C4.2553 6.58944 4.00394 6.66975 3.89841 6.87429C3.79294 7.07883 3.87326 7.33009 4.07779 7.43561L12.0834 11.564V21.9301C12.0834 22.1602 12.2699 22.3468 12.5001 22.3468C12.7302 22.3468 12.9167 22.1602 12.9167 21.9301V11.5648L22.8255 6.48912C22.83 6.54662 22.8284 18.3602 22.8284 18.443Z" fill="#F1E846"/>
</g>
<defs>
<clipPath id="clip0_4401_28131">
<rect width="25" height="25" fill="white"/>
</clipPath>
</defs>
</svg>
